<?xml version="1.0" encoding="UTF-8"?>
<svg xmlns="http://www.w3.org/2000/svg" version="1.1" width="136.894" height="136.894" viewBox="0 0 136.894 136.894">
	<path fill="#ff5623" d="M 73.658 92.7033 L 94.177 72.1849 L 131.788 109.795 L 111.313 130.27 Z" />
	<path fill="#4489ff"
		d="M 74.338 0 L 74.338 46.2982 C 82.42 48.092 87.999 54.2906 90.024 62.3177 L 137.139 62.3177 C 134.369 28.2475 108.436 2.4052 74.338 0 Z" />
	<path fill="#3f51b5"
		d="M 63.028 0.0586 C 29.2517 2.8217 2.7464 28.5396 0 62.3173 L 47.565 62.3177 C 49.497 54.657 55.406 48.6313 63.028 46.5502 Z" />
	<path fill="#2f3e9f"
		d="M 0.0194 73.9163 C 2.9946 107.483 29.1415 134.146 62.728 136.894 L 62.728 89.0943 C 55.466 87.1123 49.432 81.1183 47.244 73.9163 Z" />
</svg>